<svg height="96" width="96" xmlns="http://www.w3.org/2000/svg" xmlns:xlink="http://www.w3.org/1999/xlink"><linearGradient id="a"><stop offset="0" stop-color="#fefefe"/><stop offset="1" stop-color="#fefefe" stop-opacity="0"/></linearGradient><linearGradient id="b" gradientUnits="userSpaceOnUse" x1="36.357143" x2="36.357143" xlink:href="#a" y1="6" y2="63.893143"/><filter id="c" color-interpolation-filters="sRGB" height="1.384" width="1.384" x="-.192" y="-.192"><feGaussianBlur stdDeviation="5.28"/></filter><radialGradient id="d" cx="48" cy="90.171875" gradientTransform="matrix(1.1573129 0 0 .99590774 -7.551021 .197132)" gradientUnits="userSpaceOnUse" r="42" xlink:href="#a"/><clipPath id="e"><rect height="84" rx="6" width="84" x="6" y="6"/></clipPath><linearGradient id="f" gradientUnits="userSpaceOnUse" x1="48" x2="48" y1="90" y2="5.987717"><stop offset="0" stop-color="#79aff2"/><stop offset="1" stop-color="#acceff"/></linearGradient><linearGradient id="g" gradientTransform="matrix(1.0058652 0 0 .994169 100 0)" gradientUnits="userSpaceOnUse" x1="45.447727" x2="45.447727" y1="92.539597" y2="7.01654"><stop offset="0"/><stop offset="1" stop-opacity=".588235"/></linearGradient><linearGradient id="h" gradientTransform="matrix(1.0238095 0 0 1.0119048 -1.142857 -98.071429)" gradientUnits="userSpaceOnUse" x1="32.251034" x2="32.251034" xlink:href="#g" y1="6.131708" y2="90.238609"/><linearGradient id="i" gradientTransform="translate(0 -97)" gradientUnits="userSpaceOnUse" x1="32.251034" x2="32.251034" xlink:href="#g" y1="6.131708" y2="90.238609"/><linearGradient id="j" gradientUnits="userSpaceOnUse" x1="48" x2="48" xlink:href="#a" y1="20.220806" y2="138.66119"/><g><g fill="url(#h)"><path d="m12-95.03125c-5.5110903 0-10.03125 4.52016-10.03125 10.03125v71c0 5.5110902 4.5201598 10.03125 10.03125 10.03125h72c5.51109 0 10.03125-4.5201597 10.03125-10.03125v-71c0-5.51109-4.52016-10.03125-10.03125-10.03125z" opacity=".08" transform="scale(1 -1)"/><path d="m12-94.03125c-4.971633 0-9.03125 4.059617-9.03125 9.03125v71c0 4.9716329 4.0596171 9.03125 9.03125 9.03125h72c4.971633 0 9.03125-4.059617 9.03125-9.03125v-71c0-4.971633-4.059617-9.03125-9.03125-9.03125z" opacity=".1" transform="scale(1 -1)"/><path d="m12-93c-4.4091333 0-8 3.590867-8 8v71c0 4.4091333 3.5908667 8 8 8h72c4.409133 0 8-3.5908667 8-8v-71c0-4.409133-3.590867-8-8-8z" opacity=".2" transform="scale(1 -1)"/><rect height="85" opacity=".3" rx="7" transform="scale(1 -1)" width="86" x="5" y="-92"/></g><rect fill="url(#i)" height="84" opacity=".45" rx="6" transform="scale(1 -1)" width="84" x="6" y="-91"/></g><rect fill="url(#f)" height="84" rx="6" width="84" x="6" y="6"/><path d="m12 6c-3.324 0-6 2.676-6 6v2 68 2c0 .334721.04135.6507.09375.96875.0487.295596.09704.596915.1875.875.00988.03038.020892.0636.03125.09375.098865.287771.2348802.547452.375.8125.1445918.273507.3156161.535615.5.78125s.3737765.473472.59375.6875c.439947.428056.94291.814526 1.5 1.09375.278545.139612.5734731.246947.875.34375-.2562018-.100222-.4867109-.236272-.71875-.375-.00741-.0044-.023866.0045-.03125 0-.031933-.0193-.062293-.04251-.09375-.0625-.120395-.0767-.2310226-.163513-.34375-.25-.1061728-.0808-.2132809-.161112-.3125-.25-.1779299-.161433-.3474596-.345388-.5-.53125-.1075789-.130255-.2183939-.265285-.3125-.40625-.025089-.03838-.038446-.08587-.0625-.125-.064763-.103032-.1302275-.204517-.1875-.3125-.1010083-.194706-.2056748-.415701-.28125-.625-.00796-.02181-.023589-.04055-.03125-.0625-.0318251-.09195-.0358045-.186831-.0625-.28125-.0303323-.106618-.0703894-.203031-.09375-.3125-.0728786-.341512-.125-.698205-.125-1.0625v-2-68-2c0-2.781848 2.2181517-5 5-5h2 68 2c2.781848 0 5 2.218152 5 5v2 68 2c0 .364295-.05212.720988-.125 1.0625-.04415.206893-.08838.397658-.15625.59375-.0077.02195-.0233.04069-.03125.0625-.06274.173739-.138383.367449-.21875.53125-.04158.0828-.07904.169954-.125.25-.0546.09721-.126774.18835-.1875.28125-.09411.140965-.204921.275995-.3125.40625-.143174.17445-.303141.346998-.46875.5-.01117.0102-.01998.02115-.03125.03125-.138386.125556-.285091.234436-.4375.34375-.102571.07315-.204318.153364-.3125.21875-.0074.0045-.02384-.0044-.03125 0-.232039.138728-.462548.274778-.71875.375.301527-.0968.596455-.204138.875-.34375.55709-.279224 1.060053-.665694 1.5-1.09375.219973-.214028.409366-.441865.59375-.6875s.355408-.507743.5-.78125c.14012-.265048.276135-.524729.375-.8125.01041-.03078.02133-.06274.03125-.09375.09046-.278085.1388-.579404.1875-.875.0524-.31805.09375-.634029.09375-.96875v-2-68-2c0-3.324-2.676-6-6-6z" fill="url(#b)" opacity=".35"/><path d="m12 90c-3.324 0-6-2.676-6-6v-2-68-2c0-.334721.04135-.6507.09375-.96875.0487-.295596.09704-.596915.1875-.875.00988-.03038.020892-.0636.03125-.09375.098865-.287771.2348802-.547452.375-.8125.1445918-.273507.3156161-.535615.5-.78125s.3737765-.473472.59375-.6875c.439947-.428056.94291-.814526 1.5-1.09375.278545-.139612.5734731-.246947.875-.34375-.2562018.100222-.4867109.236272-.71875.375-.00741.0044-.023866-.0045-.03125 0-.031933.0193-.062293.04251-.09375.0625-.120395.0767-.2310226.163513-.34375.25-.1061728.0808-.2132809.161112-.3125.25-.1779299.161433-.3474596.345388-.5.53125-.1075789.130255-.2183939.265285-.3125.40625-.025089.03838-.038446.08587-.0625.125-.064763.103032-.1302275.204517-.1875.3125-.1010083.194706-.2056748.415701-.28125.625-.00796.02181-.023589.04055-.03125.0625-.0318251.09195-.0358045.186831-.0625.28125-.0303323.106618-.0703894.203031-.09375.3125-.0728786.341512-.125.698205-.125 1.0625v2 68 2c0 2.781848 2.2181517 5 5 5h2 68 2c2.781848 0 5-2.218152 5-5v-2-68-2c0-.364295-.05212-.720988-.125-1.0625-.04415-.206893-.08838-.397658-.15625-.59375-.0077-.02195-.0233-.04069-.03125-.0625-.06274-.173739-.138383-.367449-.21875-.53125-.04158-.0828-.07904-.169954-.125-.25-.0546-.09721-.126774-.18835-.1875-.28125-.09411-.140965-.204921-.275995-.3125-.40625-.143174-.17445-.303141-.346998-.46875-.5-.01117-.0102-.01998-.02115-.03125-.03125-.138386-.125556-.285091-.234436-.4375-.34375-.102571-.07315-.204318-.153364-.3125-.21875-.0074-.0045-.02384.0044-.03125 0-.232039-.138728-.462548-.274778-.71875-.375.301527.0968.596455.204138.875.34375.55709.279224 1.060053.665694 1.5 1.09375.219973.214028.409366.441865.59375.6875s.355408.507743.5.78125c.14012.265048.276135.524729.375.8125.01041.03078.02133.06274.03125.09375.09046.278085.1388.579404.1875.875.0524.31805.09375.634029.09375.96875v2 68 2c0 3.324-2.676 6-6 6z" fill="url(#d)" opacity=".2"/><g transform="matrix(.14198485 0 0 .14198485 -6.247302 61.370472)"><path d="m430.48213 123.29521c-.32046-.32045-.58248-2.47809-.58248-4.79517 0-3.30249 3.08928-10.84115 14.29921-34.895488 7.86479-16.875632 16.8843-34.99657 20.04341-40.268735 11.86537-19.800735 11.74531-19.431603 14.66925-45.1013902l-.22684-24.0249608 6.81293-12.303807c7.11936-15.896793 15.53057-25.989513 21.18392-38.741897 7.88466-14.636436 11.6797-22.656827 17.76965-35.634652 3.84652-7.92983 10.80267-22.51998 14.21491-31.67704 12.40047-33.2743 12.99314-35.48036 18.59868-38.37898 2.5133-1.29995 7.27479-1.1941 10.24285-.30489 4.06852 1.21888 5.91891 6.23312 16.82588 27.48695 18.96677 36.95847 21.18277 40.43272 30.03539 49.60724 3.41888 3.54316 9.39671 11.7018 13.10824 17.251447 8.23707 9.877928 5.78913 14.555965 5.90781 25.369516.33138 30.196922 2.19106 24.896133 8.13539 32.814124 2.90817 3.873907 8.26784 12.021246 13.95949 18.044871 5.72043 6.0543312 20.02357 17.7686771 22.37386 21.7655483l-.004 35.3223057c-9.43458 2.780718-27.45171 6.955349-36.05373 8.580594-8.60204 1.625245-20.42677 4.308978-26.27706 5.963845-5.85062 1.654869-19.85948 5.32287-31.13098 8.151097-11.27152 2.82823-27.14481 7.66202-35.27376 10.741754-8.12893 3.079773-20.45557 7.555689-27.39252 9.946515-24.39382 8.407151-64.48396 24.041633-84.93256 33.122283-3.14804 1.39774-5.98607 2.27937-6.30652 1.95892zm23.92008-319.59852c-12.42055-8.36446-21.42812-9.37506-43.91988-4.92787-15.40966 3.04709-29.82076 3.3106-44.43953.81308-5.57868-.95287-14.55598-1.46401-24.21673-1.37852-14.6203.12938-31.84571-.60433-38.70937-1.64898-1.74752-.26575-4.30818-1.3733-5.691-2.46086l-3.3047-2.26498 2.63285-5.0239c1.01291-2.92147 2.09176-6.50043 2.39711-7.95333 1.04694-8.18061 7.63622-12.50917 20.61262-24.1473 13.98931-12.54649 16.35278-15.32989 30.13753-22.24565 17.29985-8.67939 37.24876-15.70802 56.88076-20.53186 4.99464-1.22711 13.41832-4.34943 18.968-6.56577 16.42333-6.55779 29.2806-6.70818 46.02425.30774 10.1076 4.235 14.92472 5.06735 18.71091 3.69825 2.02536-.73255 12.89318-1.69754 25.60205-1.85573 19.74497-.24568 20.97802.88648 31.57555 3.57178 12.65909 3.20763 13.8034 4.59333 17.96994 10.34501 3.22194 4.44752 3.11326 7.37819 1.42356 13.46332-1.58362 5.70307-4.01968 8.53076-15.11503 11.95461-13.84056 4.27129-21.60246 9.36336-46.58005 35.85678-4.28071 4.54064-10.20388 10.579-13.22448 12.85967-6.42392 4.8504-19.93094 11.31804-27.14742 12.19942-4.60948.56294-5.80458-.84434-10.58694-4.06491z" fill="#007fe9" stroke-width="1.00903"/><path d="m262.33293 138.25086c-1.86799-1.86799-1.52748-5.47554 1.74447-18.48164 2.23132-8.86959 4.59126-15.00584 9.36731-24.356677 3.51149-6.875 7.56923-16.63468 9.01721-21.68817 2.29951-8.02536 2.63269-11.02124 2.63269-23.67248 0-13.42378-.28801-15.67976-3.93363-30.81182-4.99256-20.7228499-10.23696-35.92662-14.62486-42.3982-2.59009-3.82005-5.29879-6.13531-10.98244-9.38724-13.17069-7.53569-15.06019-7.74037-78.95907-8.55313-60.87114-.77424-59.99855-.6848-62.98307-6.45623-2.84896-5.50927-1.2083-12.85299 3.85706-17.26454 2.94466-2.56458 28.64263-19.92786 40.90301-27.63683 5.57079-3.50275 16.11686-8.971183 23.43571-12.152083 17.72943-7.7055 21.37088-10.20769 33.93451-23.3178 11.33717-11.83031 14.80965-16.60799 20.83157-28.66148 2.06085-4.125 5.96501-10.65 8.67591-14.5 8.52838-12.11194 17.54921-25.69121 22.91865-34.5 8.42183-13.81634 15.51302-22.66054 30.194-37.65829 14.76062-15.0791 27.58246-25.12659 39.23265-30.74357 11.27603-5.4366 44.59348-18.31784 57.28892-22.14914 20.50614-6.18845 26.01554-8.26499 32.82533-12.37217 8.49522-5.12371 15.29921-7.07683 24.65317-7.07683 11.50108 0 17.12348 1.51366 30.4927 8.20926l12.34391 6.1821 23.19798.70883c26.22979.80146 26.75843.86894 43.19799 5.51418 21.14633 5.97521 44.11119 19.54831 50.4628 29.82544 3.03061 4.90364 3.84517 13.67813 1.58937 17.12091-2.73438 4.17319-9.79714 6.78553-16.66242 6.163-3.17059-.2875-6.79297-1.24295-8.04973-2.12322-3.18029-2.22756-4.92358-2.03097-12.11321 1.36596-10.98021 5.1879-14.14092 9.71123-15.39839 22.0368-.73856 7.23929.49881 9.96085 10.68289 23.49674 10.95629 14.56224 15.37105 21.44062 23.74777 37 11.05257 20.52966 16.86782 30.1381 22.58885 37.32321 6.42783 8.07278 13.79948 18.58467 15.9038 22.67862.84863 1.651003 4.05305 6.500373 7.12094 10.776363 6.92466 9.65154 8.39499 15.99284 6.84086 29.50359-.93902 8.1634-.42663 16.79687 1.32731 22.36437 1.77215 5.6253 4.06197 7.0383 28.15622 30.95212l.062 15.9970833s-4.95847 2.3596367-9.41797-4.4195032c-3.55442-5.40328002-10.61183-14.17828-15.68312-19.5000001-10.39678-10.91017-18.12262-20.63756-19.71264-24.81961-.66641-1.75279-.9533-9.82418-.75946-21.36668l.31151-18.5498-6.7287-10.46988c-3.70078-5.75843-9.81689-13.699533-13.59136-17.646893-8.02481-8.39238-11.54178-14.08477-24.93955-40.3659-11.90946-23.36165-16.79509-32.03693-18.98274-33.70709-1.96147-1.49749-8.64436-1.64719-11.25124-.25203-4.4272 2.36936-9.0809 12.07615-18.45892 38.50203-6.51569 18.36023-29.17065 64.535723-40.72208 83.000003-3.09677 4.95-6.8048 11.65715-8.24007 14.90478-1.43526 3.24763-4.82345 9.77263-7.5293 14.5-4.3111 7.53188-5.63935 9.01802-10.73658 12.01285-18.98828 11.1563801-31.72685 18.99473008-38.40291 23.6302501-4.17234 2.89706-11.82234 7.3926999-17 9.9902999-5.17767 2.59761-12.80824 6.89772-16.95683 9.55581-11.61288 7.44061-18.0637 9.95465-26.16562 10.19737-6.5758.197-7.10486.0454-9.48043-2.71624-2.01997-2.34826-2.40587-3.6297-1.95742-6.5.68961-4.41382 4.01991-7.47015 19.9071-18.2694499 25.07086-17.0419 45.61237-38.5937001 57.00214-59.8056701 10.44503-19.45251 23.00388-59.996143 25.25129-81.518503.62332-5.96919-1.45896-24.84149-3.63176-32.91573-.5823-2.16383-.724-5.31383-.3149-7 .40909-1.68618.80819-6.35823.88687-10.38236.1518-7.76361.95093-9.13873 5.32788-9.1681 3.82857-.0257 18.37603-6.09047 24.44845-10.19246 3.15188-2.12914 9.45188-7.78313 14-12.56441 25.42682-26.73041 33.41461-33.27048 44.93308-36.78935 13.06066-3.99001 15.03625-5.32263 17.15385-11.57108 2.23511-6.59518 1.65284-10.26496-2.41096-15.19506-4.03676-4.89729-6.3755-6.01438-19.45896-9.29448-10.31193-2.58527-12.09782-2.73228-30.75137-2.53142-10.892.11728-20.9338.64293-22.3151 1.1681-5.02861 1.91187-7.45914 1.34627-27.38125-6.3718-4.32901-1.67711-7.62907-2.12411-15.5-2.09951-9.37497.0293-10.63761.28978-20.20127 4.16729-5.61069 2.27482-14.38569 5.11213-19.5 6.30514-5.1143 1.19301-11.54873 3.00455-14.29873 4.02565s-6.35 2.16798-8 2.54861c-4.76037 1.09816-22.96226 8.62467-35.5 14.67931-13.27774 6.412-22.38062 13.35349-38.59347 29.42983l-11.03523 10.94231-2.38684 8.41401c-2.61527 9.21925-2.91371 9.58421-18.95424 23.17844-5.99515 5.08085-7.71642 7.18245-8.71913 10.64574-1.24863 4.31264-1.24723 4.31698 2.40148 7.45249 22.43937 19.28325 24.96576 22.35761 27.84396 33.88335 2.54478 10.19055 6.8312 16.64227 13.44944 20.24347 5.12083 2.78641 6.34314 3.01327 17.99403 3.33971 12.45178.34887 12.50964.33992 15-2.31909 2.29285-2.44812 2.54272-3.63631 3.01552-14.3397.44798-10.14145.86736-12.34122 3.20113-16.79073 3.24658-6.18983 10.31573-11.25512 20.26675-14.52181 5.88234-1.93103 7.42738-2.07809 11.88879-1.1316 9.53937 2.02379 16.86555 5.41597 21.9319 10.15495 4.7309 4.4252 4.88947 4.75256 4.46118 9.20985-.74406 7.7436-15.17909 28.48765-21.6639 31.13239-3.93991 1.60685-29.7779.99518-33.22328-.78649-3.42164-1.7694-7.30124-1.85345-8.6295-.18696-.54797.6875-1.31025 3.41828-1.69398 6.0684-.56273 3.88642-1.68502 5.91734-5.80235 10.5-2.80757 3.124883-5.58788 6.012213-6.17847 6.416293-.59058.40408-5.67602.74158-11.30096.75-11.01761.0165-18.19201-1.92282-27.67698-7.481383-4.86654-2.85199-14.83391-12.94695-24.05039-24.35825-6.62413-8.2016-13.74722-14.14762-16.93926-14.14009-2.89584.007-6.58854 3.34353-12.01316 10.85504-5.52285 7.64753-5.70785 9.98482-1.45782 18.41851 5.64064 11.19317 9.71009 16.609713 21.85565 29.090443 6.58639 6.76815 12.65788 13.93947 13.4922 15.93627 2.28779 5.47546 2.01551 17.42205-.48307 21.19477-3.37914 5.10233-2.63749 9.99811 3.56959 23.5636 7.51991 16.4346601 7.26838 15.6551001 9.98167 30.9364001 1.31835 7.4249999 2.85864 15.0720299 3.42287 16.9933999 2.13191 7.2598.62056 32.9515-3.07666 52.30075-1.32844 6.95231-5.03835 15.78863-9.682 23.060667-4.72377 7.39752-12.2205 26.10646-13.01216 32.47333-.57614 4.63362-1.0733 5.72463-2.71595 5.96017-1.1059.15858-2.56796-.26892-3.24904-.95z" stroke="#000" stroke-width="3.521502"/></g><rect height="66" rx="12" style="opacity:.141;stroke:#fefefe;stroke-width:.5;stroke-linecap:round;clip-path:url(#e);fill:url(#j);filter:url(#c)" width="66" x="15" y="15"/><ellipse cx="52.579685" cy="80.385139" fill="#fffdff" opacity=".141" rx="3.966101" ry="7.728813" transform="matrix(.93420447 -.356738 .356738 .93420447 0 0)"/></svg>