<?xml version="1.0" encoding="UTF-8"?>
<!DOCTYPE svg PUBLIC "-//W3C//DTD SVG 1.1//EN" "http://www.w3.org/Graphics/SVG/1.1/DTD/svg11.dtd">
<svg xmlns="http://www.w3.org/2000/svg" version="1.1" width="512px" height="512px" style="shape-rendering:geometricPrecision; text-rendering:geometricPrecision; image-rendering:optimizeQuality; fill-rule:evenodd; clip-rule:evenodd" xmlns:xlink="http://www.w3.org/1999/xlink">
<g><path style="opacity:0.991" fill="#000000" d="M 247.5,-0.5 C 265.167,-0.5 282.833,-0.5 300.5,-0.5C 308.157,0.396094 315.823,1.56276 323.5,3C 254.665,43.114 218.331,103.281 214.5,183.5C 218.372,260.432 253.039,318.598 318.5,358C 369.805,384.76 423.138,390.093 478.5,374C 484.952,371.794 491.286,369.294 497.5,366.5C 497.833,366.833 498.167,367.167 498.5,367.5C 462.803,440.348 405.469,486.515 326.5,506C 315.075,508.177 303.742,510.01 292.5,511.5C 277.5,511.5 262.5,511.5 247.5,511.5C 148.344,499.357 77.1775,448.357 34,358.5C 0.820872,275.515 6.82087,195.515 52,118.5C 98.5224,48.6365 163.689,8.96985 247.5,-0.5 Z"/></g>
</svg>
