<?xml version="1.0" standalone="no"?>
<!DOCTYPE svg PUBLIC "-//W3C//DTD SVG 20010904//EN"
 "http://www.w3.org/TR/2001/REC-SVG-20010904/DTD/svg10.dtd">
<svg version="1.0" xmlns="http://www.w3.org/2000/svg"
 width="2560.000000pt" height="266.000000pt" viewBox="0 0 2560.000000 266.000000"
 preserveAspectRatio="xMidYMid meet">

<g transform="translate(0.000000,266.000000) scale(0.100000,-0.100000)"
fill="#000000" stroke="none">
<path d="M12768 2650 c-9 -6 -112 -173 -229 -373 -117 -199 -263 -447 -324
-552 l-112 -190 -254 -2 -254 -3 -210 361 c-212 365 -235 396 -273 373 -8 -6
-111 -172 -227 -370 l-211 -359 -3702 -3 c-2036 -1 -3702 1 -3702 4 0 15 56
143 78 179 33 55 108 130 162 165 25 15 78 38 118 50 116 34 170 104 160 211
-6 58 -41 109 -94 134 -50 23 -129 15 -233 -25 -257 -99 -459 -346 -537 -653
l-16 -67 -260 0 -260 0 -478 280 c-515 302 -539 313 -629 292 -45 -10 -354
-187 -1069 -609 -208 -123 -229 -142 -201 -191 9 -17 88 -70 229 -153 767
-451 998 -583 1034 -591 98 -22 107 -18 630 288 l485 284 261 0 c248 0 260 -1
260 -19 0 -30 47 -184 76 -247 60 -133 177 -281 284 -359 99 -73 259 -135 345
-135 119 1 204 111 181 234 -10 54 -61 101 -131 121 -33 10 -82 29 -109 42
-110 56 -231 207 -271 341 l-6 22 3697 -2 3698 -3 123 -210 c68 -116 162 -276
209 -357 47 -80 92 -152 100 -159 40 -33 59 -8 278 366 l211 360 252 3 252 2
99 -167 c54 -93 199 -339 321 -548 123 -209 232 -388 243 -398 29 -25 60 -21
90 11 21 23 186 300 567 954 l86 148 252 0 251 0 78 -132 c265 -454 338 -575
354 -592 12 -13 26 -17 42 -13 26 7 23 2 294 464 l159 273 3697 0 3697 0 -14
-41 c-42 -118 -133 -240 -223 -298 -27 -17 -82 -42 -122 -56 -41 -14 -85 -35
-98 -48 -105 -98 -48 -286 97 -313 44 -9 119 6 201 39 247 100 436 334 511
630 l21 87 258 0 257 0 394 -231 c217 -127 437 -256 490 -285 105 -60 165 -74
234 -55 22 6 218 114 435 242 217 127 485 283 594 347 110 64 208 124 218 134
21 21 23 65 5 89 -10 14 -223 140 -1032 614 -207 122 -201 119 -281 119 -81 0
-31 27 -688 -358 l-369 -216 -260 2 -260 3 -19 75 c-83 324 -305 571 -592 659
-112 35 -177 24 -229 -38 -94 -112 -24 -273 133 -306 64 -13 150 -67 205 -128
54 -60 119 -177 131 -235 l7 -32 -3699 0 -3699 0 -174 298 c-96 163 -193 328
-215 365 -42 70 -73 91 -101 67 -13 -11 -42 -59 -313 -520 l-120 -205 -254 -3
-253 -2 -310 531 c-170 292 -324 546 -341 565 -32 35 -56 41 -86 24z"/>
</g>
</svg>
