<!DOCTYPE svg PUBLIC "-//W3C//DTD SVG 1.1//EN" "http://www.w3.org/Graphics/SVG/1.1/DTD/svg11.dtd">
<!-- Uploaded to: SVG Repo, www.svgrepo.com, Transformed by: SVG Repo Mixer Tools -->
<svg xmlns="http://www.w3.org/2000/svg" xmlns:xlink="http://www.w3.org/1999/xlink" version="1.1" id="Capa_1" viewBox="0 0 455 455" xml:space="preserve" width="800px" height="800px" fill="#000000">
<g id="SVGRepo_bgCarrier" stroke-width="0"/>
<g id="SVGRepo_tracerCarrier" stroke-linecap="round" stroke-linejoin="round"/>
<g id="SVGRepo_iconCarrier"> <g> <polygon style="fill:#878787;" points="415,0 395,227.5 415,455 455,455 455,0 "/> <polygon style="fill:#d5d9dd;" points="375,0 285,455 415,455 415,0 "/> <polygon style="fill:#d5d9dd;" points="40,0 40,455 285,455 295,375 375,365 375,0 "/> <polygon style="fill:#878787;" points="285,365 285,455 375,365 "/> <rect x="122.5" y="0" style="fill:#b12abb;" width="15" height="455"/> <path style="fill:#185F8D;" d="M65,332.5H15c-8.284,0-15,6.716-15,15s6.716,15,15,15h50c8.284,0,15-6.716,15-15 S73.284,332.5,65,332.5z"/> <path style="fill:#185F8D;" d="M65,212.5H15c-8.284,0-15,6.716-15,15s6.716,15,15,15h50c8.284,0,15-6.716,15-15 S73.284,212.5,65,212.5z"/> <path style="fill:#185F8D;" d="M65,92.5H15c-8.284,0-15,6.716-15,15s6.716,15,15,15h50c8.284,0,15-6.716,15-15S73.284,92.5,65,92.5 z"/> </g> </g>
</svg>